<svg width="103" height="103" viewBox="0 0 103 103" fill="none" xmlns="http://www.w3.org/2000/svg">
<g opacity="0.5">
<g filter="url(#filter0_d_204_13799)">
<rect x="10" y="10" width="82.5" height="82.5" rx="41.25" fill="url(#paint0_linear_204_13799)"/>
</g>
<path fill-rule="evenodd" clip-rule="evenodd" d="M53.3962 51.1539C53.6943 50.972 53.9473 50.5909 54.1514 50.1674C56.8365 51.2649 58.7234 53.8581 58.7234 56.8823C58.7234 60.8999 55.3934 64.1568 51.2856 64.1568C49.5993 64.1568 48.7148 64.0117 47.168 63.1846C46.2871 62.618 46.0506 62.3031 45.7751 62.1508C45.3477 61.9145 45.0675 61.7596 44.892 61.7838C44.379 61.8545 44.5279 62.3265 44.6633 62.7552C44.7552 63.0465 44.8408 63.3178 44.7083 63.4297C44.5695 63.5469 44.1202 63.1185 43.5953 62.618C42.8806 61.9366 42.0257 61.1215 41.6226 61.3663C41.3038 61.5599 41.6133 62.0851 41.9921 62.7279L42.0202 62.7756C42.1803 63.0474 42.3657 63.324 42.5349 63.5765C42.8789 64.0897 43.156 64.5032 43.0173 64.5732C42.8498 64.6577 41.6822 63.8697 40.6983 62.7756C40.3185 62.3533 39.9507 61.8956 39.6088 61.4703C38.8606 60.5393 38.2372 59.7636 37.8873 59.8555C37.4663 59.966 37.7848 60.8343 38.2527 61.67C38.4715 62.0607 38.7289 62.4586 38.9518 62.8032C39.2983 63.3389 39.5614 63.7455 39.4659 63.7955C39.3372 63.8628 38.2045 62.7582 37.4351 61.3663C36.9782 60.5395 36.5944 59.6258 36.2838 58.8861C35.9469 58.0839 35.696 57.4864 35.5307 57.4263C34.9566 57.2173 34.9566 58.3878 35.1869 60.0774C35.2169 60.2977 35.2616 60.5289 35.3167 60.7642C37.5497 67.9893 44.4093 73.25 52.5252 73.25C62.4524 73.25 70.5 65.3791 70.5 55.6699C70.5 46.4289 63.2099 38.8533 53.9477 38.144C53.9594 37.7087 54.1866 36.8454 54.1866 36.8454C54.1866 36.8454 55.8218 32.8892 55.9081 32.0438C55.9139 31.9877 55.9207 31.9267 55.9279 31.8618C56.0298 30.9484 56.2193 29.25 54.7582 29.25C53.9779 29.25 53.615 29.8305 53.2 30.4944C53.0407 30.7492 52.8737 31.0164 52.6724 31.2677C51.2228 33.078 48.7852 35.3386 47.4031 36.5429C44.4818 39.0885 41.6156 41.1806 39.944 42.4007C39.1836 42.9556 38.6704 43.3302 38.5116 43.485C37.3148 44.6517 33.0238 52.3918 33.0238 52.3918C33.0238 52.3918 31.6361 54.8751 32.1293 55.3787C32.6226 55.8823 33.812 55.7669 33.812 55.7669C33.812 55.7669 49.7913 52.1011 51.2219 51.8119C51.6071 51.7341 51.879 51.6892 52.0878 51.6547C52.6545 51.5611 52.7563 51.5443 53.3962 51.1539ZM42.0982 46.443C41.2405 47.2583 39.818 49.2044 39.818 49.2044C39.818 49.2044 42.4618 49.3672 43.9178 47.9832C45.3739 46.5991 45.0403 44.2403 45.0403 44.2403C45.0403 44.2403 42.9559 45.6277 42.0982 46.443Z" fill="white"/>
</g>
<defs>
<filter id="filter0_d_204_13799" x="0" y="0" width="102.5" height="102.5" filterUnits="userSpaceOnUse" color-interpolation-filters="sRGB">
<feFlood flood-opacity="0" result="BackgroundImageFix"/>
<feColorMatrix in="SourceAlpha" type="matrix" values="0 0 0 0 0 0 0 0 0 0 0 0 0 0 0 0 0 0 127 0" result="hardAlpha"/>
<feOffset/>
<feGaussianBlur stdDeviation="5"/>
<feColorMatrix type="matrix" values="0 0 0 0 0.027451 0 0 0 0 0.427451 0 0 0 0 0.752941 0 0 0 0.7 0"/>
<feBlend mode="normal" in2="BackgroundImageFix" result="effect1_dropShadow_204_13799"/>
<feBlend mode="normal" in="SourceGraphic" in2="effect1_dropShadow_204_13799" result="shape"/>
</filter>
<linearGradient id="paint0_linear_204_13799" x1="10.5318" y1="10" x2="10.5318" y2="91.4363" gradientUnits="userSpaceOnUse">
<stop stop-color="#0C69C8"/>
<stop offset="1" stop-color="#0180C7"/>
</linearGradient>
</defs>
</svg>
