<svg width="103" height="103" viewBox="0 0 103 103" fill="none" xmlns="http://www.w3.org/2000/svg">
<g opacity="0.5">
<g filter="url(#filter0_d_201_7873)">
<rect x="10" y="10" width="82.5" height="82.5" rx="41.25" fill="url(#paint0_linear_201_7873)"/>
</g>
<path d="M44.9502 32C45.6991 32.0001 46.3362 32.4713 46.5859 33.1328C46.8953 32.8566 47.3026 32.6875 47.75 32.6875H53.3496C54.3161 32.6875 55.0996 33.471 55.0996 34.4375V34.7842C55.2128 34.7612 55.3302 34.75 55.4502 34.75H61.0498C62.0163 34.75 62.7998 35.5335 62.7998 36.5V37.5H68.75C69.7165 37.5 70.5 38.2835 70.5 39.25V57.5986C70.5 57.9136 70.4147 58.2158 70.2617 58.4785C68.8082 66.8495 60.8504 73.25 51.25 73.25C40.6185 73.25 32 65.401 32 55.7188C32 51.0445 34.0091 46.7981 37.2832 43.6553C37.275 48.2119 37.3503 52.9227 37.7051 52.8418C38.769 52.5974 37.7097 34.9158 37.7051 34.8389L37.5996 34.9902V33.75C37.5996 32.7836 38.3833 32.0002 39.3496 32H44.9502Z" fill="white"/>
</g>
<defs>
<filter id="filter0_d_201_7873" x="0" y="0" width="102.5" height="102.5" filterUnits="userSpaceOnUse" color-interpolation-filters="sRGB">
<feFlood flood-opacity="0" result="BackgroundImageFix"/>
<feColorMatrix in="SourceAlpha" type="matrix" values="0 0 0 0 0 0 0 0 0 0 0 0 0 0 0 0 0 0 127 0" result="hardAlpha"/>
<feOffset/>
<feGaussianBlur stdDeviation="5"/>
<feColorMatrix type="matrix" values="0 0 0 0 0.831373 0 0 0 0 0.266667 0 0 0 0 0.364706 0 0 0 0.7 0"/>
<feBlend mode="normal" in2="BackgroundImageFix" result="effect1_dropShadow_201_7873"/>
<feBlend mode="normal" in="SourceGraphic" in2="effect1_dropShadow_201_7873" result="shape"/>
</filter>
<linearGradient id="paint0_linear_201_7873" x1="10.5318" y1="10" x2="10.5318" y2="91.4363" gradientUnits="userSpaceOnUse">
<stop stop-color="#CE4265"/>
<stop offset="1" stop-color="#E74347"/>
</linearGradient>
</defs>
</svg>
