<svg width="103" height="103" viewBox="0 0 103 103" fill="none" xmlns="http://www.w3.org/2000/svg">
<g opacity="0.5">
<g filter="url(#filter0_d_204_17148)">
<rect x="10" y="10" width="82.5" height="82.5" rx="41.25" fill="url(#paint0_linear_204_17148)"/>
</g>
<path d="M46.102 42.2387C40.622 42.7506 30.6561 46.8461 32.151 58.1086C33.6459 69.3711 42.1168 70.9856 49.5908 70.395C57.0649 69.8043 63.0449 60.1563 61.0514 61.6921C59.0578 63.2279 54.574 62.716 54.574 62.716C60.7483 59.4891 62.9144 58.2089 65.0377 55.037C59.7087 56.6337 57.6994 56.7426 54.5736 56.5728C66.0335 52.9893 67.8325 48.8078 70.5192 44.7983C60.7893 49.3928 57.446 50.3053 54.0757 49.9177C69.1974 43.2959 73.0338 39.3173 76 32C63.1125 38.3717 51.5819 41.7267 46.102 42.2387Z" fill="white"/>
</g>
<defs>
<filter id="filter0_d_204_17148" x="0" y="0" width="102.5" height="102.5" filterUnits="userSpaceOnUse" color-interpolation-filters="sRGB">
<feFlood flood-opacity="0" result="BackgroundImageFix"/>
<feColorMatrix in="SourceAlpha" type="matrix" values="0 0 0 0 0 0 0 0 0 0 0 0 0 0 0 0 0 0 127 0" result="hardAlpha"/>
<feOffset/>
<feGaussianBlur stdDeviation="5"/>
<feColorMatrix type="matrix" values="0 0 0 0 0.615686 0 0 0 0 0.709804 0 0 0 0 0.894118 0 0 0 0.7 0"/>
<feBlend mode="normal" in2="BackgroundImageFix" result="effect1_dropShadow_204_17148"/>
<feBlend mode="normal" in="SourceGraphic" in2="effect1_dropShadow_204_17148" result="shape"/>
</filter>
<linearGradient id="paint0_linear_204_17148" x1="10" y1="10" x2="10" y2="92.5" gradientUnits="userSpaceOnUse">
<stop stop-color="#90A7DA"/>
<stop offset="1" stop-color="#A6C2F2"/>
</linearGradient>
</defs>
</svg>
