<svg width="103" height="103" viewBox="0 0 103 103" fill="none" xmlns="http://www.w3.org/2000/svg">
<g opacity="0.5">
<g filter="url(#filter0_d_199_13898)">
<rect x="10" y="10" width="82.5" height="82.5" rx="41.25" fill="url(#paint0_linear_199_13898)"/>
</g>
<path d="M44.9562 43.79C45.0956 43.79 45.1931 43.9284 45.1456 44.0596L37.6085 64.8672C37.5797 64.9467 37.5045 64.9998 37.42 65H30.6613C30.5209 65 30.4237 64.8599 30.4728 64.7285L38.2667 43.9199C38.2962 43.8415 38.3714 43.7901 38.4552 43.79H44.9562ZM61.4601 34.75C61.5456 34.75 61.6223 34.804 61.6505 34.8848L72.0157 64.6152C72.061 64.7458 71.9644 64.8816 71.8263 64.8818H39.8292C39.6904 64.8818 39.5936 64.7451 39.6398 64.6143L50.1613 34.8838C50.1898 34.8036 50.2656 34.75 50.3507 34.75H61.4601Z" fill="white"/>
</g>
<defs>
<filter id="filter0_d_199_13898" x="0" y="0" width="102.5" height="102.5" filterUnits="userSpaceOnUse" color-interpolation-filters="sRGB">
<feFlood flood-opacity="0" result="BackgroundImageFix"/>
<feColorMatrix in="SourceAlpha" type="matrix" values="0 0 0 0 0 0 0 0 0 0 0 0 0 0 0 0 0 0 127 0" result="hardAlpha"/>
<feOffset/>
<feGaussianBlur stdDeviation="5"/>
<feColorMatrix type="matrix" values="0 0 0 0 0.847059 0 0 0 0 0.509804 0 0 0 0 0.333333 0 0 0 0.7 0"/>
<feBlend mode="normal" in2="BackgroundImageFix" result="effect1_dropShadow_199_13898"/>
<feBlend mode="normal" in="SourceGraphic" in2="effect1_dropShadow_199_13898" result="shape"/>
</filter>
<linearGradient id="paint0_linear_199_13898" x1="10.5318" y1="10" x2="10.5318" y2="91.4363" gradientUnits="userSpaceOnUse">
<stop stop-color="#DC7545"/>
<stop offset="1" stop-color="#D29463"/>
</linearGradient>
</defs>
</svg>
