<svg width="103" height="103" viewBox="0 0 103 103" fill="none" xmlns="http://www.w3.org/2000/svg">
<g opacity="0.5">
<g filter="url(#filter0_d_199_11545)">
<rect x="10" y="10" width="82.5" height="82.5" rx="41.25" fill="url(#paint0_linear_199_11545)"/>
</g>
<path d="M51.25 32C61.8815 32 70.5 40.6185 70.5 51.25C70.5 61.8815 61.8815 70.5 51.25 70.5C40.6185 70.5 32 61.8815 32 51.25C32 40.6185 40.6185 32 51.25 32ZM51.25 40.25C45.1749 40.25 40.25 45.1749 40.25 51.25C40.25 57.3251 45.1749 62.25 51.25 62.25C57.3251 62.25 62.25 57.3251 62.25 51.25C62.25 45.1749 57.3251 40.25 51.25 40.25Z" fill="white"/>
</g>
<defs>
<filter id="filter0_d_199_11545" x="0" y="0" width="102.5" height="102.5" filterUnits="userSpaceOnUse" color-interpolation-filters="sRGB">
<feFlood flood-opacity="0" result="BackgroundImageFix"/>
<feColorMatrix in="SourceAlpha" type="matrix" values="0 0 0 0 0 0 0 0 0 0 0 0 0 0 0 0 0 0 127 0" result="hardAlpha"/>
<feOffset/>
<feGaussianBlur stdDeviation="5"/>
<feColorMatrix type="matrix" values="0 0 0 0 0.364706 0 0 0 0 0.34902 0 0 0 0 0.415686 0 0 0 0.7 0"/>
<feBlend mode="normal" in2="BackgroundImageFix" result="effect1_dropShadow_199_11545"/>
<feBlend mode="normal" in="SourceGraphic" in2="effect1_dropShadow_199_11545" result="shape"/>
</filter>
<linearGradient id="paint0_linear_199_11545" x1="10.5318" y1="10" x2="10.5318" y2="91.4363" gradientUnits="userSpaceOnUse">
<stop stop-color="#9298A4"/>
<stop offset="1" stop-color="#A3A49E"/>
</linearGradient>
</defs>
</svg>
