<svg width="103" height="103" viewBox="0 0 103 103" fill="none" xmlns="http://www.w3.org/2000/svg">
<g opacity="0.5">
<g filter="url(#filter0_d_201_9749)">
<rect x="10" y="10" width="82.5" height="82.5" rx="41.25" fill="url(#paint0_linear_201_9749)"/>
</g>
<path d="M59.748 53.9004C59.8318 53.8431 59.9463 53.865 60.0029 53.9492L63.9082 59.7607C63.9632 59.8426 63.9433 59.9532 63.8633 60.0107L53.1504 67.6963C53.1031 67.7302 53.0417 67.7388 52.9863 67.7207L43.8994 64.7441L59.748 53.9004ZM60.9814 37.5684C61.093 37.5684 61.1785 37.6679 61.1621 37.7783L59.1904 51.0107C59.1829 51.0606 59.1548 51.1051 59.1133 51.1338L40.4834 63.9961C40.4365 64.0285 40.3765 64.0363 40.3223 64.0186L32.126 61.3389C32.0509 61.3143 32 61.244 32 61.165V52.7803C32 52.7378 32.0149 52.6968 32.042 52.6641L44.5 37.6348C44.5347 37.593 44.5863 37.5684 44.6406 37.5684H60.9814ZM64.8389 37.5C64.9184 37.5002 64.9887 37.5521 65.0127 37.6279L70.4619 54.8809C70.4848 54.9535 70.4603 55.0331 70.4004 55.0801L66.5586 58.0801C66.4774 58.1434 66.3598 58.1269 66.2988 58.0439L61.7666 51.8711C61.7375 51.8312 61.726 51.7811 61.7344 51.7324L64.1494 37.6514C64.1646 37.5639 64.2403 37.5 64.3291 37.5H64.8389Z" fill="white"/>
</g>
<defs>
<filter id="filter0_d_201_9749" x="0" y="0" width="102.5" height="102.5" filterUnits="userSpaceOnUse" color-interpolation-filters="sRGB">
<feFlood flood-opacity="0" result="BackgroundImageFix"/>
<feColorMatrix in="SourceAlpha" type="matrix" values="0 0 0 0 0 0 0 0 0 0 0 0 0 0 0 0 0 0 127 0" result="hardAlpha"/>
<feOffset/>
<feGaussianBlur stdDeviation="5"/>
<feColorMatrix type="matrix" values="0 0 0 0 0.796078 0 0 0 0 0.756863 0 0 0 0 0.580392 0 0 0 0.7 0"/>
<feBlend mode="normal" in2="BackgroundImageFix" result="effect1_dropShadow_201_9749"/>
<feBlend mode="normal" in="SourceGraphic" in2="effect1_dropShadow_201_9749" result="shape"/>
</filter>
<linearGradient id="paint0_linear_201_9749" x1="10" y1="10" x2="10" y2="92.5" gradientUnits="userSpaceOnUse">
<stop stop-color="#C5B489"/>
<stop offset="1" stop-color="#D7CD90"/>
</linearGradient>
</defs>
</svg>
