<svg width="24" height="24" viewBox="0 0 24 24" fill="none" xmlns="http://www.w3.org/2000/svg">
<path d="M18 2H6V4H18V20H16V18H14V16H10V18H8V20H6V2H4V22H8V20H10V18H14V20H16V22H20V2H18Z" fill="white"/>
<path d="M6.37964 4.70712H17.6153" stroke="white" stroke-width="2" stroke-linecap="square"/>
<path d="M6.43213 6.12469H17.6153" stroke="white" stroke-width="2" stroke-linecap="square"/>
<path d="M6.79968 7.27977H17.9304" stroke="white" stroke-width="2" stroke-linecap="square"/>
<path d="M6.48462 8.80236H17.4578" stroke="white" stroke-width="2" stroke-linecap="square"/>
<path d="M6.53723 10.6925H17.5629" stroke="white" stroke-width="2" stroke-linecap="square"/>
<path d="M6.6947 12.4776H17.4053" stroke="white" stroke-width="2" stroke-linecap="square"/>
<path d="M6.6947 14.1577H17.3528" stroke="white" stroke-width="2" stroke-linecap="square"/>
<path d="M6.32715 15.3652H17.5628" stroke="white" stroke-width="2" stroke-linecap="square"/>
<path d="M14.6227 16.7303H17.4579" stroke="white" stroke-width="2" stroke-linecap="square"/>
<path d="M14.9968 17.8714H17.3158" stroke="white" stroke-width="2" stroke-linecap="square"/>
<path d="M16.994 19.3156H17.9266" stroke="white" stroke-width="2" stroke-linecap="square"/>
<path d="M6.73804 16.7678V19.5496" stroke="white" stroke-width="2" stroke-linecap="square"/>
<path d="M8.01111 16.7206H9.12699" stroke="white" stroke-width="2" stroke-linecap="square"/>
<path d="M7.89062 17.8286H9.00287" stroke="white" stroke-width="2" stroke-linecap="square"/>
<path d="M7.86975 18.8286V19.0007" stroke="white" stroke-width="2" stroke-linecap="square"/>
</svg>
