<svg width="25" height="25" viewBox="0 0 25 25" fill="none" xmlns="http://www.w3.org/2000/svg">
<path d="M20.2383 7.14062V4.76562H23.8086V3.57031H20.2383V1.1875H19.0508V7.14062H20.2383Z" fill="white"/>
<path d="M20.2383 23.8125V21.4297H23.8086V20.2344H20.2383V17.8594H19.0508V23.8125H20.2383Z" fill="white"/>
<path d="M23.8086 11.9062H7.14453V9.52344H5.95703V8.33594H4.76172V9.52344H3.57422V11.9062H1.19141V13.0938H3.57422V15.4766H4.76172V16.6641H5.95703V15.4766H7.14453V13.0938H23.8086V11.9062Z" fill="white"/>
<path d="M17.8555 23.8125H19.0508V25H17.8555V23.8125Z" fill="white"/>
<path d="M17.8555 16.6641H19.0508V17.8594H17.8555V16.6641Z" fill="white"/>
<path d="M17.8555 7.14062H19.0508V8.33594H17.8555V7.14062Z" fill="white"/>
<path d="M17.8555 0H19.0508V1.1875H17.8555V0Z" fill="white"/>
<path d="M17.8555 17.8594H16.668V20.2344H1.19141V21.4297H16.668V23.8125H17.8555V17.8594Z" fill="white"/>
<path d="M16.668 3.57031H1.19141V4.76562H16.668V7.14062H17.8555V1.1875H16.668V3.57031Z" fill="white"/>
</svg>
