<svg width="25" height="25" viewBox="0 0 25 25" fill="none" xmlns="http://www.w3.org/2000/svg">
<path d="M6.24998 2.08331H14.5833V4.16665H6.24998V2.08331ZM4.16665 6.24998V4.16665H6.24998V6.24998H4.16665ZM4.16665 14.5833H2.08331V6.24998H4.16665V14.5833ZM6.24998 16.6666H4.16665V14.5833H6.24998V16.6666ZM14.5833 16.6666V18.75H6.24998V16.6666H14.5833ZM16.6666 14.5833H14.5833V16.6666H16.6666V18.75H18.75V20.8333H20.8333V22.9166H22.9166V20.8333H20.8333V18.75H18.75V16.6666H16.6666V14.5833ZM16.6666 6.24998H18.75V14.5833H16.6666V6.24998ZM16.6666 6.24998V4.16665H14.5833V6.24998H16.6666Z" fill="white"/>
</svg>
