<svg width="25" height="25" viewBox="0 0 25 25" fill="none" xmlns="http://www.w3.org/2000/svg">
<g clip-path="url(#clip0_97_833)">
<path d="M22.6172 5.95312V7.14063H23.8125V8.33594H22.6172V9.52344H25V5.95312H22.6172Z" fill="white"/>
<path d="M22.6172 10.7109H23.8125V11.9062H22.6172V10.7109Z" fill="white"/>
<path d="M22.6172 3.57031H23.8125V4.75781H22.6172V3.57031Z" fill="white"/>
<path d="M21.4297 11.9062H22.6172V13.0938H21.4297V11.9062Z" fill="white"/>
<path d="M21.4297 9.52344H22.6172V10.7109H21.4297V9.52344Z" fill="white"/>
<path d="M21.4297 4.75781H22.6172V5.95312H21.4297V4.75781Z" fill="white"/>
<path d="M21.4297 2.38281H22.6172V3.57031H21.4297V2.38281Z" fill="white"/>
<path d="M20.2422 13.0938H21.4297V14.2813H20.2422V13.0938Z" fill="white"/>
<path d="M20.2422 1.1875H21.4297V2.38281H20.2422V1.1875Z" fill="white"/>
<path d="M19.0469 11.9062H20.2422V13.0938H19.0469V11.9062Z" fill="white"/>
<path d="M19.0469 2.38281H20.2422V3.57031H19.0469V2.38281Z" fill="white"/>
<path d="M15.4766 0V2.38281H16.6719V1.1875H17.8594V2.38281H19.0469V0H15.4766Z" fill="white"/>
<path d="M16.6719 20.2344H17.8594V21.4297H16.6719V20.2344Z" fill="white"/>
<path d="M15.4766 13.0938V14.2813H17.8594V16.6641H15.4766V17.8594H19.0469V13.0938H15.4766Z" fill="white"/>
<path d="M15.4766 21.4297H16.6719V22.6172H15.4766V21.4297Z" fill="white"/>
<path d="M15.4766 19.0469H16.6719V20.2344H15.4766V19.0469Z" fill="white"/>
<path d="M15.4766 10.7109H16.6719V11.9062H15.4766V10.7109Z" fill="white"/>
<path d="M15.4766 9.52344H16.6719V10.7109H19.0469V9.52344H20.2422V5.95312H19.0469V7.14063H17.8594V5.95312H19.0469V4.75781H15.4766V5.95312H14.2891V8.33594H15.4766V9.52344Z" fill="white"/>
<path d="M14.2891 22.6172H15.4766V23.8125H14.2891V22.6172Z" fill="white"/>
<path d="M14.2891 17.8594H15.4766V19.0469H14.2891V17.8594Z" fill="white"/>
<path d="M14.2891 11.9062H15.4766V13.0938H14.2891V11.9062Z" fill="white"/>
<path d="M14.2891 2.38281H15.4766V3.57031H14.2891V2.38281Z" fill="white"/>
<path d="M13.0938 21.4297H14.2891V22.6172H13.0938V21.4297Z" fill="white"/>
<path d="M13.0938 8.33594H14.2891V9.52344H13.0938V8.33594Z" fill="white"/>
<path d="M13.0938 1.1875H14.2891V2.38281H13.0938V1.1875Z" fill="white"/>
<path d="M11.9062 20.2344H13.0938V21.4297H11.9062V20.2344Z" fill="white"/>
<path d="M11.9062 14.2812H13.0938V16.6641H11.9062V14.2812Z" fill="white"/>
<path d="M11.9062 9.52344H13.0938V10.7109H11.9062V9.52344Z" fill="white"/>
<path d="M11.9062 2.38281H13.0938V3.57031H11.9062V2.38281Z" fill="white"/>
<path d="M10.7188 23.8125H8.33594V21.4297H7.14844V25H11.9063V21.4297H10.7188V23.8125Z" fill="white"/>
<path d="M10.7188 16.6641H11.9062V17.8594H10.7188V16.6641Z" fill="white"/>
<path d="M10.7188 13.0938H11.9062V14.2813H10.7188V13.0938Z" fill="white"/>
<path d="M10.7188 3.57031H11.9062V4.75781H10.7188V3.57031Z" fill="white"/>
<path d="M8.33594 11.9062H10.7188V13.0938H8.33594V11.9062Z" fill="white"/>
<path d="M8.33594 17.8594H10.7188V19.0469H8.33594V17.8594Z" fill="white"/>
<path d="M7.14844 16.6641H8.33594V17.8594H7.14844V16.6641Z" fill="white"/>
<path d="M7.14844 13.0938H8.33594V14.2813H7.14844V13.0938Z" fill="white"/>
<path d="M8.33594 7.14063H10.7188V9.52344H11.9063V5.95312H7.14844V9.52344H8.33594V7.14063Z" fill="white"/>
<path d="M5.95312 20.2344H7.14844V21.4297H5.95312V20.2344Z" fill="white"/>
<path d="M5.95312 14.2812H7.14844V16.6641H5.95312V14.2812Z" fill="white"/>
<path d="M5.95312 9.52344H7.14844V10.7109H5.95312V9.52344Z" fill="white"/>
<path d="M4.76562 21.4297H5.95312V22.6172H4.76562V21.4297Z" fill="white"/>
<path d="M4.76562 8.33594H5.95312V9.52344H4.76562V8.33594Z" fill="white"/>
<path d="M3.57031 22.6172H4.76562V23.8125H3.57031V22.6172Z" fill="white"/>
<path d="M3.57031 17.8594H4.76562V19.0469H3.57031V17.8594Z" fill="white"/>
<path d="M3.57031 11.9062H4.76562V13.0938H3.57031V11.9062Z" fill="white"/>
<path d="M3.57031 7.14062H4.76562V8.33594H3.57031V7.14062Z" fill="white"/>
<path d="M2.38281 21.4297H3.57031V22.6172H2.38281V21.4297Z" fill="white"/>
<path d="M2.38281 19.0469H3.57031V20.2344H2.38281V19.0469Z" fill="white"/>
<path d="M1.19531 16.6641V14.2813H3.57031V13.0938H0V17.8594H3.57031V16.6641H1.19531Z" fill="white"/>
<path d="M2.38281 10.7109H3.57031V11.9062H2.38281V10.7109Z" fill="white"/>
<path d="M2.38281 8.33594H3.57031V9.52344H2.38281V8.33594Z" fill="white"/>
<path d="M1.19531 20.2344H2.38281V21.4297H1.19531V20.2344Z" fill="white"/>
<path d="M1.19531 9.52344H2.38281V10.7109H1.19531V9.52344Z" fill="white"/>
</g>
<defs>
<clipPath id="clip0_97_833">
<rect width="25" height="25" fill="white"/>
</clipPath>
</defs>
</svg>
